# xmcd
#
# Track frame offsets:
# 150
# 22708
# 37462
# 66943
# 81396
# 97145
# 119227
# 138862
# 170339
# 202822
# 221819
# 249110
# 273223
# 291318
# 303784
#
# Disc length: 4265 seconds
#
#
# Revision: 0
# Processed by: cddbd v1.5.2PL0 Copyright (c) Steve Scherf et al.
# Submitted via: FreeRIP 2.95 
#
DISCID=dd10a70f
DTITLE=Living The Blues  Singing Blues CD1
DYEAR=1900
DGENRE=Blues
TTITLE0=Lowell Fulson  Think Twice Before You Speak
TTITLE1=Guitar Shorty  Red Hot Mama
TTITLE2=Katie Webster  It's Migthy Hard
TTITLE3=Buddy Guy  Early In The Morning
TTITLE4=Chris Beard  Playing The Blues For A Living
TTITLE5=Jeff Healey  When The Night Comes Fallin'
TTITLE6=Clarence "Gatemouth" Brown  Straighten Up
TTITLE7=Albert Collins  Lights Are On But Nobody's Home
TTITLE8=Shemekia Copeland  Married To The Blues
TTITLE9=Dr. John  Careless Love
TTITLE10=Nappy Brown  Night Time
TTITLE11=Larry Garner  Dog House Blues
TTITLE12=Freddie King  Reconsider Baby
TTITLE13=Nina Simone  Do I Move You
TTITLE14=Gregg Allman  Silence Ain't Golden Anymore
EXTD=
EXTT0=
EXTT1=
EXTT2=
EXTT3=
EXTT4=
EXTT5=
EXTT6=
EXTT7=
EXTT8=
EXTT9=
EXTT10=
EXTT11=
EXTT12=
EXTT13=
EXTT14=
PLAYORDER=
